# MagicaVoxel @ Ephtracy

# group
g Duck

# material
mtllib Duck.mtl
usemtl palette

# normals
vn -1 0 0
vn 1 0 0
vn 0 0 1
vn 0 0 -1
vn 0 -1 0
vn 0 1 0

# texcoords
vt 0.0175781 0.5
vt 0.0878906 0.5
vt 0.533203 0.5
vt 0.537109 0.5
vt 0.908203 0.5
vt 0.958984 0.5
vt 0.994141 0.5

# verts
v -3.5 0 2.5
v -3.5 0 -0.5
v -3.5 1 2.5
v -3.5 1 -0.5
v -3.5 5 2.5
v -3.5 5 -2.5
v -3.5 7 2.5
v -3.5 7 -2.5
v -2.5 1 1.5
v -2.5 1 0.5
v -2.5 3 3.5
v -2.5 3 1.5
v -2.5 3 0.5
v -2.5 3 -5.5
v -2.5 5 3.5
v -2.5 5 2.5
v -2.5 5 -2.5
v -2.5 5 -4.5
v -2.5 5 -5.5
v -2.5 7 2.5
v -2.5 7 -2.5
v -2.5 8 -1.5
v -2.5 8 -4.5
v -2.5 9 3.5
v -2.5 9 -1.5
v -2.5 10 3.5
v -2.5 10 -1.5
v -2.5 11 2.5
v -2.5 11 0.5
v -2.5 11 -0.5
v -2.5 13 2.5
v -2.5 13 0.5
v -2.5 14 2.5
v -2.5 14 -0.5
v -2.5 15 3.5
v -2.5 15 -1.5
v -1.5 11 6.5
v -1.5 11 3.5
v -1.5 13 6.5
v -1.5 13 3.5
v 1.5 0 2.5
v 1.5 0 -0.5
v 1.5 1 2.5
v 1.5 1 -0.5
v 2.5 1 1.5
v 2.5 1 0.5
v 2.5 3 1.5
v 2.5 3 0.5
v -1.5 1 1.5
v -1.5 1 0.5
v -1.5 3 1.5
v -1.5 3 0.5
v -0.5 0 2.5
v -0.5 0 -0.5
v -0.5 1 2.5
v -0.5 1 -0.5
v 2.5 11 6.5
v 2.5 11 3.5
v 2.5 13 6.5
v 2.5 13 3.5
v 3.5 1 1.5
v 3.5 1 0.5
v 3.5 3 3.5
v 3.5 3 1.5
v 3.5 3 0.5
v 3.5 3 -5.5
v 3.5 5 3.5
v 3.5 5 2.5
v 3.5 5 -2.5
v 3.5 5 -4.5
v 3.5 5 -5.5
v 3.5 7 2.5
v 3.5 7 -2.5
v 3.5 8 -1.5
v 3.5 8 -4.5
v 3.5 9 3.5
v 3.5 9 -1.5
v 3.5 10 3.5
v 3.5 10 -1.5
v 3.5 11 2.5
v 3.5 11 0.5
v 3.5 11 -0.5
v 3.5 13 2.5
v 3.5 13 0.5
v 3.5 14 2.5
v 3.5 14 -0.5
v 3.5 15 3.5
v 3.5 15 -1.5
v 4.5 0 2.5
v 4.5 0 -0.5
v 4.5 1 2.5
v 4.5 1 -0.5
v 4.5 5 2.5
v 4.5 5 -2.5
v 4.5 7 2.5
v 4.5 7 -2.5
v -1.5 11 6.5
v -1.5 13 6.5
v 2.5 11 6.5
v 2.5 13 6.5
v -2.5 3 3.5
v -2.5 5 3.5
v -2.5 9 3.5
v -2.5 10 3.5
v -2.5 15 3.5
v -1.5 11 3.5
v -1.5 13 3.5
v 2.5 11 3.5
v 2.5 13 3.5
v 3.5 3 3.5
v 3.5 5 3.5
v 3.5 9 3.5
v 3.5 10 3.5
v 3.5 15 3.5
v -3.5 0 2.5
v -3.5 1 2.5
v -3.5 5 2.5
v -3.5 7 2.5
v -2.5 5 2.5
v -2.5 7 2.5
v -0.5 0 2.5
v -0.5 1 2.5
v 1.5 0 2.5
v 1.5 1 2.5
v 3.5 5 2.5
v 3.5 7 2.5
v 4.5 0 2.5
v 4.5 1 2.5
v 4.5 5 2.5
v 4.5 7 2.5
v -2.5 1 1.5
v -2.5 3 1.5
v -1.5 1 1.5
v -1.5 3 1.5
v 2.5 1 1.5
v 2.5 3 1.5
v 3.5 1 1.5
v 3.5 3 1.5
v -2.5 1 0.5
v -2.5 3 0.5
v -1.5 1 0.5
v -1.5 3 0.5
v 2.5 1 0.5
v 2.5 3 0.5
v 3.5 1 0.5
v 3.5 3 0.5
v -3.5 0 -0.5
v -3.5 1 -0.5
v -0.5 0 -0.5
v -0.5 1 -0.5
v 1.5 0 -0.5
v 1.5 1 -0.5
v 4.5 0 -0.5
v 4.5 1 -0.5
v -2.5 8 -1.5
v -2.5 9 -1.5
v -2.5 10 -1.5
v -2.5 15 -1.5
v 3.5 8 -1.5
v 3.5 9 -1.5
v 3.5 10 -1.5
v 3.5 15 -1.5
v -3.5 5 -2.5
v -3.5 7 -2.5
v -2.5 5 -2.5
v -2.5 7 -2.5
v 3.5 5 -2.5
v 3.5 7 -2.5
v 4.5 5 -2.5
v 4.5 7 -2.5
v -2.5 5 -4.5
v -2.5 8 -4.5
v 3.5 5 -4.5
v 3.5 8 -4.5
v -2.5 3 -5.5
v -2.5 5 -5.5
v 3.5 3 -5.5
v 3.5 5 -5.5
v -3.5 0 2.5
v -0.5 0 2.5
v 1.5 0 2.5
v 4.5 0 2.5
v -3.5 0 -0.5
v -0.5 0 -0.5
v 1.5 0 -0.5
v 4.5 0 -0.5
v -2.5 3 3.5
v 3.5 3 3.5
v -2.5 3 1.5
v -1.5 3 1.5
v 2.5 3 1.5
v 3.5 3 1.5
v -2.5 3 0.5
v -1.5 3 0.5
v 2.5 3 0.5
v 3.5 3 0.5
v -2.5 3 -5.5
v 3.5 3 -5.5
v -3.5 5 2.5
v -2.5 5 2.5
v 3.5 5 2.5
v 4.5 5 2.5
v -3.5 5 -2.5
v -2.5 5 -2.5
v 3.5 5 -2.5
v 4.5 5 -2.5
v -1.5 11 6.5
v 2.5 11 6.5
v -1.5 11 3.5
v 2.5 11 3.5
v -3.5 1 2.5
v -0.5 1 2.5
v 1.5 1 2.5
v 4.5 1 2.5
v -2.5 1 1.5
v -1.5 1 1.5
v 2.5 1 1.5
v 3.5 1 1.5
v -2.5 1 0.5
v -1.5 1 0.5
v 2.5 1 0.5
v 3.5 1 0.5
v -3.5 1 -0.5
v -0.5 1 -0.5
v 1.5 1 -0.5
v 4.5 1 -0.5
v -2.5 5 -4.5
v 3.5 5 -4.5
v -2.5 5 -5.5
v 3.5 5 -5.5
v -3.5 7 2.5
v -2.5 7 2.5
v 3.5 7 2.5
v 4.5 7 2.5
v -3.5 7 -2.5
v -2.5 7 -2.5
v 3.5 7 -2.5
v 4.5 7 -2.5
v -2.5 8 -1.5
v 3.5 8 -1.5
v -2.5 8 -4.5
v 3.5 8 -4.5
v -1.5 13 6.5
v 2.5 13 6.5
v -1.5 13 3.5
v 2.5 13 3.5
v -2.5 15 3.5
v 3.5 15 3.5
v -2.5 15 -1.5
v 3.5 15 -1.5

# faces
f 3/2/1 2/2/1 1/2/1
f 4/2/1 2/2/1 3/2/1
f 7/4/1 6/4/1 5/4/1
f 8/4/1 6/4/1 7/4/1
f 12/2/1 10/2/1 9/2/1
f 13/2/1 10/2/1 12/2/1
f 15/3/1 12/3/1 11/3/1
f 15/3/1 14/3/1 13/3/1
f 15/3/1 13/3/1 12/3/1
f 16/3/1 14/3/1 15/3/1
f 17/3/1 14/3/1 16/3/1
f 18/3/1 14/3/1 17/3/1
f 19/3/1 14/3/1 18/3/1
f 20/4/1 16/4/1 15/4/1
f 21/4/1 18/4/1 17/4/1
f 22/4/1 21/4/1 20/4/1
f 23/4/1 18/4/1 21/4/1
f 23/4/1 21/4/1 22/4/1
f 24/4/1 20/4/1 15/4/1
f 24/4/1 22/4/1 20/4/1
f 25/4/1 22/4/1 24/4/1
f 26/6/1 25/6/1 24/6/1
f 27/6/1 25/6/1 26/6/1
f 28/5/1 27/5/1 26/5/1
f 29/5/1 27/5/1 28/5/1
f 30/5/1 27/5/1 29/5/1
f 31/5/1 28/5/1 26/5/1
f 31/7/1 29/7/1 28/7/1
f 32/6/1 30/6/1 29/6/1
f 32/7/1 29/7/1 31/7/1
f 33/5/1 31/5/1 26/5/1
f 33/6/1 32/6/1 31/6/1
f 34/5/1 27/5/1 30/5/1
f 34/6/1 32/6/1 33/6/1
f 34/6/1 30/6/1 32/6/1
f 35/5/1 33/5/1 26/5/1
f 35/5/1 34/5/1 33/5/1
f 36/5/1 27/5/1 34/5/1
f 36/5/1 34/5/1 35/5/1
f 39/1/1 38/1/1 37/1/1
f 40/1/1 38/1/1 39/1/1
f 43/2/1 42/2/1 41/2/1
f 44/2/1 42/2/1 43/2/1
f 47/2/1 46/2/1 45/2/1
f 48/2/1 46/2/1 47/2/1
f 49/2/2 50/2/2 51/2/2
f 51/2/2 50/2/2 52/2/2
f 53/2/2 54/2/2 55/2/2
f 55/2/2 54/2/2 56/2/2
f 57/1/2 58/1/2 59/1/2
f 59/1/2 58/1/2 60/1/2
f 61/2/2 62/2/2 64/2/2
f 64/2/2 62/2/2 65/2/2
f 63/3/2 64/3/2 67/3/2
f 65/3/2 66/3/2 67/3/2
f 64/3/2 65/3/2 67/3/2
f 67/3/2 66/3/2 68/3/2
f 68/3/2 66/3/2 69/3/2
f 69/3/2 66/3/2 70/3/2
f 70/3/2 66/3/2 71/3/2
f 67/4/2 68/4/2 72/4/2
f 69/4/2 70/4/2 73/4/2
f 72/4/2 73/4/2 74/4/2
f 73/4/2 70/4/2 75/4/2
f 74/4/2 73/4/2 75/4/2
f 67/4/2 72/4/2 76/4/2
f 72/4/2 74/4/2 76/4/2
f 76/4/2 74/4/2 77/4/2
f 76/6/2 77/6/2 78/6/2
f 78/6/2 77/6/2 79/6/2
f 78/5/2 79/5/2 80/5/2
f 80/5/2 79/5/2 81/5/2
f 81/5/2 79/5/2 82/5/2
f 78/5/2 80/5/2 83/5/2
f 80/7/2 81/7/2 83/7/2
f 81/6/2 82/6/2 84/6/2
f 83/7/2 81/7/2 84/7/2
f 78/5/2 83/5/2 85/5/2
f 83/6/2 84/6/2 85/6/2
f 82/5/2 79/5/2 86/5/2
f 85/6/2 84/6/2 86/6/2
f 84/6/2 82/6/2 86/6/2
f 78/5/2 85/5/2 87/5/2
f 85/5/2 86/5/2 87/5/2
f 86/5/2 79/5/2 88/5/2
f 87/5/2 86/5/2 88/5/2
f 89/2/2 90/2/2 91/2/2
f 91/2/2 90/2/2 92/2/2
f 93/4/2 94/4/2 95/4/2
f 95/4/2 94/4/2 96/4/2
f 99/1/3 98/1/3 97/1/3
f 100/1/3 98/1/3 99/1/3
f 106/5/3 105/5/3 104/5/3
f 107/5/3 105/5/3 106/5/3
f 108/5/3 106/5/3 104/5/3
f 109/5/3 105/5/3 107/5/3
f 110/3/3 102/3/3 101/3/3
f 111/4/3 103/4/3 102/4/3
f 111/3/3 102/3/3 110/3/3
f 112/6/3 104/6/3 103/6/3
f 112/4/3 103/4/3 111/4/3
f 113/5/3 109/5/3 108/5/3
f 113/6/3 104/6/3 112/6/3
f 113/5/3 108/5/3 104/5/3
f 114/5/3 105/5/3 109/5/3
f 114/5/3 109/5/3 113/5/3
f 119/4/3 118/4/3 117/4/3
f 120/4/3 118/4/3 119/4/3
f 121/2/3 116/2/3 115/2/3
f 122/2/3 116/2/3 121/2/3
f 127/2/3 124/2/3 123/2/3
f 128/2/3 124/2/3 127/2/3
f 129/4/3 126/4/3 125/4/3
f 130/4/3 126/4/3 129/4/3
f 133/2/3 132/2/3 131/2/3
f 134/2/3 132/2/3 133/2/3
f 137/2/3 136/2/3 135/2/3
f 138/2/3 136/2/3 137/2/3
f 139/2/4 140/2/4 141/2/4
f 141/2/4 140/2/4 142/2/4
f 143/2/4 144/2/4 145/2/4
f 145/2/4 144/2/4 146/2/4
f 147/2/4 148/2/4 149/2/4
f 149/2/4 148/2/4 150/2/4
f 151/2/4 152/2/4 153/2/4
f 153/2/4 152/2/4 154/2/4
f 155/4/4 156/4/4 159/4/4
f 156/6/4 157/6/4 160/6/4
f 159/4/4 156/4/4 160/4/4
f 157/5/4 158/5/4 161/5/4
f 160/6/4 157/6/4 161/6/4
f 161/5/4 158/5/4 162/5/4
f 163/4/4 164/4/4 165/4/4
f 165/4/4 164/4/4 166/4/4
f 167/4/4 168/4/4 169/4/4
f 169/4/4 168/4/4 170/4/4
f 171/4/4 172/4/4 173/4/4
f 173/4/4 172/4/4 174/4/4
f 175/3/4 176/3/4 177/3/4
f 177/3/4 176/3/4 178/3/4
f 183/2/5 180/2/5 179/2/5
f 184/2/5 180/2/5 183/2/5
f 185/2/5 182/2/5 181/2/5
f 186/2/5 182/2/5 185/2/5
f 189/3/5 188/3/5 187/3/5
f 190/3/5 188/3/5 189/3/5
f 191/3/5 188/3/5 190/3/5
f 192/3/5 188/3/5 191/3/5
f 194/3/5 191/3/5 190/3/5
f 195/3/5 191/3/5 194/3/5
f 197/3/5 194/3/5 193/3/5
f 197/3/5 196/3/5 195/3/5
f 197/3/5 195/3/5 194/3/5
f 198/3/5 196/3/5 197/3/5
f 203/4/5 200/4/5 199/4/5
f 204/4/5 200/4/5 203/4/5
f 205/4/5 202/4/5 201/4/5
f 206/4/5 202/4/5 205/4/5
f 209/1/5 208/1/5 207/1/5
f 210/1/5 208/1/5 209/1/5
f 211/2/6 212/2/6 215/2/6
f 215/2/6 212/2/6 216/2/6
f 213/2/6 214/2/6 217/2/6
f 217/2/6 214/2/6 218/2/6
f 211/2/6 215/2/6 219/2/6
f 216/2/6 212/2/6 220/2/6
f 213/2/6 217/2/6 221/2/6
f 218/2/6 214/2/6 222/2/6
f 211/2/6 219/2/6 223/2/6
f 219/2/6 220/2/6 223/2/6
f 220/2/6 212/2/6 224/2/6
f 223/2/6 220/2/6 224/2/6
f 221/2/6 222/2/6 225/2/6
f 213/2/6 221/2/6 225/2/6
f 222/2/6 214/2/6 226/2/6
f 225/2/6 222/2/6 226/2/6
f 227/3/6 228/3/6 229/3/6
f 229/3/6 228/3/6 230/3/6
f 231/4/6 232/4/6 235/4/6
f 235/4/6 232/4/6 236/4/6
f 233/4/6 234/4/6 237/4/6
f 237/4/6 234/4/6 238/4/6
f 239/4/6 240/4/6 241/4/6
f 241/4/6 240/4/6 242/4/6
f 243/1/6 244/1/6 245/1/6
f 245/1/6 244/1/6 246/1/6
f 247/5/6 248/5/6 249/5/6
f 249/5/6 248/5/6 250/5/6
